<?xml version="1.0" standalone="no"?>
<!DOCTYPE svg PUBLIC "-//W3C//DTD SVG 20010904//EN"
 "http://www.w3.org/TR/2001/REC-SVG-20010904/DTD/svg10.dtd">
<svg version="1.0" xmlns="http://www.w3.org/2000/svg"
 width="630.000000pt" height="630.000000pt" viewBox="0 0 630.000000 630.000000"
 preserveAspectRatio="xMidYMid meet">
<metadata>
Created by potrace 1.11, written by Peter Selinger 2001-2013
</metadata>
<g transform="translate(0.000000,630.000000) scale(0.100000,-0.100000)"
fill="#000000" stroke="none">
<path d="M0 3150 l0 -3150 3150 0 3150 0 0 3150 0 3150 -3150 0 -3150 0 0
-3150z m3457 2384 c-3 -3 -12 -4 -19 -1 -8 3 -5 6 6 6 11 1 17 -2 13 -5z m-70
-10 c-3 -3 -12 -4 -19 -1 -8 3 -5 6 6 6 11 1 17 -2 13 -5z m538 -129 c6 0 10
-6 10 -13 0 -7 7 -17 15 -22 8 -5 11 -10 5 -10 -11 1 -65 46 -65 55 0 3 6 3
13 -2 6 -4 17 -8 22 -8z m-1621 -64 c3 -5 -2 -15 -12 -22 -15 -13 -16 -12 -4
3 10 13 10 17 0 21 -9 4 -9 6 -1 6 6 1 14 -3 17 -8z m1966 -101 c8 -5 11 -10
5 -10 -5 0 -17 5 -25 10 -8 5 -10 10 -5 10 6 0 17 -5 25 -10z m-2185 -10 c3
-6 -1 -7 -9 -4 -18 7 -21 14 -7 14 6 0 13 -4 16 -10z m2286 -77 c13 -16 12
-17 -3 -4 -10 7 -18 15 -18 17 0 8 8 3 21 -13z m-340 -16 c-10 -9 -11 -8 -5 6
3 10 9 15 12 12 3 -3 0 -11 -7 -18z m-2135 4 c-4 -5 -1 -12 4 -14 6 -3 5 -4
-2 -3 -7 2 -22 -1 -33 -6 -14 -7 -13 -4 5 11 28 23 34 26 26 12z m2268 -37 c3
-8 2 -12 -4 -9 -6 3 -10 10 -10 16 0 14 7 11 14 -7z m-109 -14 c3 -5 1 -10 -4
-10 -6 0 -11 5 -11 10 0 6 2 10 4 10 3 0 8 -4 11 -10z m142 -5 c0 -8 -4 -12
-9 -9 -5 3 -6 10 -3 15 9 13 12 11 12 -6z m-2363 -16 c-3 -5 -10 -7 -15 -3 -5
3 -7 10 -3 15 3 5 10 7 15 3 5 -3 7 -10 3 -15z m2196 -19 c0 -5 -5 -10 -11
-10 -5 0 -7 5 -4 10 3 6 8 10 11 10 2 0 4 -4 4 -10z m56 -29 c-7 -11 22 -23
36 -14 6 3 8 1 5 -4 -7 -11 21 -41 38 -42 6 -1 27 -17 47 -37 22 -21 42 -33
49 -28 8 4 9 3 5 -4 -4 -7 3 -17 18 -23 14 -7 28 -20 31 -30 3 -10 28 -41 56
-69 27 -27 49 -57 49 -66 0 -8 4 -12 10 -9 5 3 7 0 4 -9 -3 -8 13 -49 35 -91
23 -41 41 -83 41 -94 0 -28 -39 -71 -64 -71 -36 0 -101 58 -169 151 -63 88
-80 107 -202 236 -100 107 -115 142 -76 177 25 23 98 46 87 27z m-2357 -14
c-2 -1 -15 -11 -29 -22 l-25 -20 19 23 c11 12 24 22 29 22 6 0 8 -1 6 -3z
m2795 -13 c24 -24 19 -30 -6 -8 -13 10 -25 20 -27 21 -2 2 1 3 7 3 6 0 18 -7
26 -16z m-163 -21 c13 -16 12 -17 -3 -4 -10 7 -18 15 -18 17 0 8 8 3 21 -13z
m-2607 -9 c3 -8 2 -12 -4 -9 -6 3 -10 10 -10 16 0 14 7 11 14 -7z m196 -38 c0
-2 -7 -7 -16 -10 -8 -3 -12 -2 -9 4 6 10 25 14 25 6z m205 -16 c-3 -5 -12 -10
-18 -10 -7 0 -6 4 3 10 19 12 23 12 15 0z m2427 -19 c8 11 9 11 6 1 -4 -16
-22 -18 -24 -2 -2 7 -1 6 3 -1 4 -8 8 -7 15 2z m-102 -65 c0 -12 -5 -7 -19 24
-11 24 -11 24 3 6 9 -11 16 -24 16 -30z m175 35 c3 -5 2 -12 -3 -15 -5 -3 -9
1 -9 9 0 17 3 19 12 6z m-3090 -25 c-12 -8 -15 -18 -10 -27 6 -11 5 -12 -5 -2
-11 10 -10 16 5 33 10 11 21 18 23 15 3 -3 -3 -11 -13 -19z m315 -10 c0 -2 -8
-10 -17 -17 -16 -13 -17 -12 -4 4 13 16 21 21 21 13z m-50 -50 c0 -2 -8 -10
-17 -17 -16 -13 -17 -12 -4 4 13 16 21 21 21 13z m-316 -14 c3 -5 -1 -9 -9 -9
-8 0 -12 4 -9 9 3 4 7 8 9 8 2 0 6 -4 9 -8z m456 -17 c-10 -12 -10 -15 0 -15
8 0 11 -3 7 -6 -3 -3 -11 -3 -17 1 -8 5 -8 11 1 21 6 8 14 14 16 14 3 0 0 -7
-7 -15z m2845 -24 c3 -5 2 -12 -3 -15 -5 -3 -9 1 -9 9 0 17 3 19 12 6z m36
-28 c13 -16 12 -17 -3 -4 -17 13 -22 21 -14 21 2 0 10 -8 17 -17z m54 -53 c10
-11 16 -20 13 -20 -3 0 -13 9 -23 20 -10 11 -16 20 -13 20 3 0 13 -9 23 -20z
m160 -198 c-3 -3 0 -11 6 -19 17 -20 5 -16 -14 5 -15 16 -15 19 -2 19 8 0 13
-3 10 -5z m-2597 -174 c18 -18 15 -43 -8 -63 -26 -23 -67 -13 -82 21 -11 22
-9 28 7 40 23 17 67 18 83 2z m1317 -40 c33 -15 42 -51 21 -83 -21 -32 -59
-33 -80 -3 -21 30 -20 54 4 78 24 24 22 23 55 8z m-360 -362 c18 -27 43 -111
54 -178 6 -40 5 -48 -8 -47 -28 1 -105 64 -123 100 -20 38 -23 100 -8 130 15
28 65 25 85 -5z"/>
</g>
</svg>
